<?xml version="1.0" encoding="utf-8"?>
<!-- Generator: Adobe Illustrator 26.5.0, SVG Export Plug-In . SVG Version: 6.00 Build 0)  -->
<svg version="1.1" id="Layer_1" xmlns="http://www.w3.org/2000/svg" xmlns:xlink="http://www.w3.org/1999/xlink" x="0px" y="0px"
	 viewBox="0 0 270 130" style="enable-background:new 0 0 270 130;" xml:space="preserve">
<style type="text/css">
	.st0{fill:#898989;}
	.st1{fill:none;}
	.st2{fill:#FFFFFF;}
	.st3{fill:#EC6A27;}
</style>
<g>
	<g>
		<path class="st0" d="M160.4,105.7V105c8.8-0.5,9.8-8.8,9.8-15.8V23c0-7.1-1-15.3-9.8-15.8V6.5h26c17.5,0,34.8,10.2,34.8,31.2
			c0,28.2-30.8,24.6-43.9,35.9v15.5c0,7.1,1,15.3,9.8,15.8v0.7H160.4z M177.2,72c15-11.5,36.6-5.9,36.6-35.3
			c0-17.4-7.5-28.9-25.7-28.9h-10.8V72z"/>
	</g>
	<path class="st1" d="M127.9,62.6c5.8,1.8,10.4,6,12.3,11.7V61c0-3.1-0.5-9.1-4.6-9.1C132,51.9,129.7,56.1,127.9,62.6z"/>
	<path class="st2" d="M33.4,83.5c16.1,0,20.6,2.5,22.3,9.8c-3.1,5.7-10.1,15.5-23.7,15.5c-14.4,0-25.2-11-25.2-27
		c0-14.7,9-30,24.8-30c14.6,0,20.5,13.3,23,23.2H55l-1.4-14.2c-3-5.6-9.8-9.8-20.5-9.8c-19.2,0-30.7,13.4-30.7,31
		c0,17.5,11.5,29.4,27.9,29.4c15,0,22.4-9.9,25.8-16.5c0.6,3.9,0.8,9,1.5,15.6h0.6V83H33.4V83.5z"/>
	<path class="st2" d="M105.8,110.7c-6-2.4-13.4-11-18.4-15.4c-3.8-3.3-12.6-11-12.6-16.3c0-9.2,23-4.4,23-17.1
		c0-6.4-6-10.7-12.9-10.7c-8.6,0-12.7,6.5-14,11.7V51.1H60.5v0.4c5.2,0.3,5.9,5.1,5.9,9.5v39.7c0,4.4-0.7,9.2-5.9,9.5v0.4h16.1v-0.4
		c-5.1-0.3-5.9-5.1-5.9-9.5V66.2c0-4.1,4.2-13,12.8-13c5,0,9.2,3.1,9.2,8.4c0,11.8-20.3,7.8-20.3,19c0,6.7,8.5,14.3,12.9,18.6
		c5.6,5.4,12.3,11,20.4,11.8V110.7z"/>
	<path class="st3" d="M125.5,62.1c-1.5-0.3-3.1-0.5-4.6-0.5c-8.4,0-15.2,4.2-17.7,9.8l-1.3,14.2h0.5c2.1-9.9,7-22.8,20.1-22.8
		c0.9,0,1.9,0,2.7,0.2c-7.5,19.7-9.3,57.5-33.6,61.2l0.4,0.2c28-1.7,30.3-40.7,35.7-60.8c7,2,12.5,8.2,12.5,18.3v18.1
		c0,4.3-0.5,10-5.9,10.3v0.4h16v-0.4c-5.4-0.2-5.9-6-5.9-10.3V61c0-4.3,0.7-9.2,5.9-9.5v-0.4h-13.5
		C131.5,51.1,128.1,55.5,125.5,62.1z M140.2,61v13.3c-1.9-5.7-6.5-9.9-12.3-11.7c1.8-6.5,4.1-10.7,7.7-10.7
		C139.7,51.9,140.2,57.9,140.2,61z"/>
	<path class="st2" d="M163.6,81V51.1c8.9,0,16.5-6,27-6c3.4,0,7.1,0.6,8.5,5.2l0.4-0.2c-1.1-5.4-5.3-9-10.9-9
		c-10,0-20.1,11.4-35.1,10v0.4c5.1,0.3,5.8,5.1,5.8,9.5v39.7c0,4.4-0.7,9.2-5.8,9.5v0.4h15.9v-0.4c-5.1-0.3-5.8-5.1-5.8-9.5V81.8
		c6.2-0.2,14.5-0.5,14.9,7.7h0.4V73.4h-0.4C178.1,81.6,169.8,81.2,163.6,81z"/>
	<path class="st2" d="M221.8,115.8c-11,0-18.6-5.2-27.6-5.2V79.1c6.2-0.2,14.5-0.5,14.9,7.7h0.4V70.6h-0.4
		c-0.4,8.2-8.7,7.8-14.9,7.7V51.9h5.9c9.6,0,14.3,5.2,18.3,11.8h0.5l-3.5-12.5h-31.2v0.4c5.1,0.3,5.8,5.1,5.8,9.5v39.7
		c0,4.4-0.7,9.2-5.8,9.5v0.4c15-1.3,25.1,9.2,35.4,9.2c5.2,0,9.6-2.8,10.7-8.2l-0.3-0.2C227,115.5,224.5,115.8,221.8,115.8z"/>
	<path class="st2" d="M268.6,70.9c0-10.6-5.3-20.2-17.7-20.2c-12.6,0-20.5,10.1-22.7,21.5V51.1H218v0.4c5.1,0.3,5.9,5.1,5.9,9.5
		v39.7c0,4.4-0.8,9.2-5.9,9.5v0.4H234v-0.4c-5.2-0.3-5.9-5.1-5.9-9.5V79.3c0-16.4,10.3-25.6,21.2-25.6c11,0,15.3,9.4,15.3,19.1
		c0,17.2-13.2,37-23.9,37v0.8h26.7v-0.8H245C256.3,105.8,268.6,87.1,268.6,70.9z"/>
</g>
</svg>
